<svg version="1.1" id="Layer_1" xmlns="http://www.w3.org/2000/svg" xmlns:xlink="http://www.w3.org/1999/xlink" x="0px" y="0px"
	 width="100%" viewBox="0 0 1402 760" enable-background="new 0 0 1402 760" xml:space="preserve">
<path fill="#000000" opacity="1.000000" stroke="none" 
	d="
M244.000000,1.000003 
	C360.028046,1.000000 476.056061,1.000000 592.631958,1.355960 
	C594.068115,3.118004 594.956360,4.524087 595.844604,5.930175 
	C596.896423,4.286787 597.948181,2.643394 599.000000,1.000000 
	C866.971863,1.000000 1134.943726,1.000000 1402.957764,1.000000 
	C1402.957764,254.278534 1402.957764,507.557098 1402.957764,760.917847 
	C935.770569,760.917847 468.541138,760.917847 1.155838,760.917847 
	C1.155838,507.666718 1.155838,254.333374 1.155838,1.000000 
	C78.766975,1.000000 156.425537,1.000000 234.911438,1.049312 
	C237.039200,2.521144 238.339645,3.943664 239.640076,5.366187 
	C241.093384,3.910795 242.546692,2.455400 244.000000,1.000003 
M1180.694336,196.541931 
	C1179.797119,197.818130 1178.899780,199.094315 1178.002563,200.370483 
	C1179.023682,200.999298 1180.044678,201.628098 1181.065796,202.256927 
	C1181.836182,200.932800 1182.606689,199.608673 1183.773560,197.635178 
	C1184.458618,196.917770 1185.440918,196.309372 1185.754028,195.455597 
	C1186.150879,194.373276 1186.318848,192.986725 1185.969238,191.936630 
	C1185.770264,191.339264 1184.062622,190.615799 1183.526855,190.894852 
	C1182.527832,191.415070 1181.628784,192.517273 1181.183472,193.583984 
	C1180.842773,194.399872 1181.264648,195.534180 1180.694336,196.541931 
M276.379242,87.296295 
	C277.245300,88.478302 277.915131,89.900993 279.014191,90.797264 
	C282.331207,93.502205 286.899689,93.029335 289.738800,89.902901 
	C292.519196,86.841133 292.455994,82.073730 289.595490,79.088547 
	C286.802917,76.174248 281.583008,75.571045 278.920074,78.684494 
	C277.224701,80.666656 277.027893,83.930519 276.379242,87.296295 
M1244.279419,690.201843 
	C1249.288208,693.280396 1253.803711,692.687500 1256.356689,688.615967 
	C1258.798218,684.722168 1257.658569,679.679688 1253.685425,677.380188 
	C1250.250610,675.392273 1246.793701,675.850708 1244.106079,678.571899 
	C1240.722778,681.997498 1240.757080,685.911011 1244.279419,690.201843 
M480.596436,511.842255 
	C478.363617,510.858917 476.046661,508.984589 473.925690,509.184967 
	C472.339600,509.334869 470.199860,511.988556 469.804413,513.846130 
	C469.461151,515.458435 470.749847,518.198364 472.182373,519.188965 
	C473.614594,520.179443 477.065796,520.497070 477.949524,519.546143 
	C479.572906,517.799255 479.961121,514.904541 480.596436,511.842255 
M1057.084595,20.739439 
	C1055.290161,26.064806 1056.634521,29.809721 1060.801025,30.699469 
	C1064.041260,31.391375 1067.303223,30.584343 1068.149658,27.311657 
	C1068.743652,25.015156 1068.233154,21.504663 1066.755981,19.805498 
	C1064.153687,16.812313 1060.562256,17.277046 1057.084595,20.739439 
M200.633331,92.047562 
	C199.452652,89.782860 198.828842,86.591904 196.961548,85.469292 
	C194.119247,83.760498 190.612915,85.241310 189.827728,88.524948 
	C189.353653,90.507454 190.495529,93.998886 192.094589,95.111191 
	C195.044510,97.163155 198.467163,96.651947 200.633331,92.047562 
M732.697144,257.469788 
	C733.790588,255.520813 735.661438,253.580170 735.682434,251.619705 
	C735.694885,250.464417 732.822327,248.459427 731.156555,248.360214 
	C729.787842,248.278732 727.413025,250.203049 727.010376,251.660080 
	C725.931091,255.566010 728.253479,257.436310 732.697144,257.469788 
M755.754517,718.648438 
	C760.433777,719.219666 763.161072,717.621033 762.529358,714.239380 
	C762.228027,712.625916 760.635376,710.486389 759.196655,710.068298 
	C757.756592,709.649780 754.542603,710.775085 754.298096,711.765137 
	C753.808960,713.745117 754.817261,716.094971 755.754517,718.648438 
M1279.769409,386.087952 
	C1278.467896,387.904724 1276.623169,389.579163 1276.094116,391.598297 
	C1275.829712,392.607178 1277.731567,394.942108 1279.087280,395.404083 
	C1280.446045,395.867096 1282.772461,395.232697 1283.923828,394.222931 
	C1286.964233,391.556610 1285.200317,387.574921 1279.769409,386.087952 
M972.766052,124.283257 
	C968.055176,126.790260 966.957275,131.049255 970.640198,133.272675 
	C971.937439,134.055847 974.405701,134.272873 975.576599,133.536194 
	C976.970703,132.658981 978.666748,130.006927 978.229187,128.964371 
	C977.431335,127.063217 975.158203,125.781189 972.766052,124.283257 
M848.469482,383.870758 
	C846.088562,381.409180 843.300781,381.104919 841.289673,383.793121 
	C840.309875,385.102844 840.063904,388.314148 840.976807,389.348297 
	C842.143494,390.669891 845.075195,391.539978 846.782593,391.035400 
	C849.848267,390.129456 849.975525,387.263885 848.469482,383.870758 
M375.027191,50.795647 
	C374.476929,47.763008 372.500153,46.357285 369.749115,47.414333 
	C368.453461,47.912159 366.977509,50.002125 367.014893,51.330349 
	C367.052582,52.669041 368.630310,54.697620 369.947968,55.115040 
	C372.727417,55.995552 374.658936,54.512444 375.027191,50.795647 
M1091.220337,740.113647 
	C1088.603760,737.731750 1085.988037,737.778259 1084.400635,740.963684 
	C1083.799805,742.169006 1084.362427,744.628418 1085.310791,745.720032 
	C1086.083618,746.609558 1089.163940,746.986633 1089.574097,746.413208 
	C1090.707886,744.827332 1090.979980,742.625244 1091.220337,740.113647 
M299.160492,756.873291 
	C300.932953,756.065796 302.973663,755.552917 304.344818,754.304626 
	C304.887085,753.810913 304.361298,751.302124 303.552460,750.402710 
	C302.739960,749.499146 300.897034,748.951050 299.633606,749.133423 
	C296.123322,749.640137 295.698456,753.031067 299.160492,756.873291 
M485.717834,527.580322 
	C487.552490,530.463318 490.311768,531.389343 492.904266,529.399719 
	C494.166229,528.431213 495.015625,525.334900 494.393616,523.942749 
	C493.753693,522.510437 491.080597,521.193237 489.322815,521.225525 
	C486.073395,521.284973 484.921417,523.739685 485.717834,527.580322 
M1232.245972,437.396057 
	C1234.272217,437.916931 1236.387085,439.010040 1238.287109,438.715698 
	C1239.228027,438.569885 1240.728027,435.451355 1240.276611,434.423492 
	C1239.581299,432.839691 1237.477661,430.957275 1235.879517,430.869324 
	C1232.028809,430.657379 1231.487183,433.575500 1232.245972,437.396057 
M1052.788696,11.999779 
	C1050.053589,11.477624 1047.407227,12.203528 1047.152954,15.023817 
	C1047.013672,16.568670 1048.938110,18.705120 1050.480225,19.809492 
	C1051.159424,20.295860 1054.354248,18.970695 1054.408325,18.305561 
	C1054.563110,16.400772 1053.695190,14.412881 1052.788696,11.999779 
M539.673584,512.725281 
	C536.763184,511.421936 534.133606,512.096619 533.074219,514.967041 
	C532.574646,516.320923 533.473633,519.274109 534.606873,519.880432 
	C536.110168,520.684753 539.774841,520.523010 540.176880,519.672791 
	C541.016968,517.896179 540.327820,515.396484 539.673584,512.725281 
M1112.173706,347.128845 
	C1108.358521,348.858063 1107.240601,351.755341 1109.884644,354.954742 
	C1110.884766,356.165039 1113.900513,356.705383 1115.482544,356.131683 
	C1116.805298,355.652039 1118.092407,353.119141 1118.128906,351.467499 
	C1118.198364,348.337219 1115.976685,346.880249 1112.173706,347.128845 
M756.426819,20.029488 
	C758.623108,19.989756 760.819397,19.950024 763.015686,19.910292 
	C762.953125,18.107311 763.505920,15.868818 762.634888,14.637938 
	C761.926453,13.636883 758.525330,13.063483 758.047424,13.667850 
	C756.846008,15.187095 756.623230,17.480213 756.426819,20.029488 
M435.938751,346.034668 
	C437.829773,346.705444 439.693726,347.609039 441.636475,347.834991 
	C441.991394,347.876282 443.356506,344.948517 443.000519,343.770508 
	C442.648193,342.604462 440.101929,340.900879 439.579681,341.212463 
	C438.035126,342.134033 437.015198,343.934814 435.938751,346.034668 
M446.248962,625.122375 
	C443.221222,621.600342 439.981537,621.370972 438.763489,624.775940 
	C438.298340,626.076233 438.599579,628.132141 439.390533,629.250000 
	C440.039398,630.166992 442.526978,630.966309 443.151733,630.477844 
	C444.582184,629.359314 445.371857,627.421265 446.248962,625.122375 
M1332.911133,307.586823 
	C1332.300659,304.514038 1330.333618,303.071625 1327.649170,304.663391 
	C1326.572754,305.301697 1325.845215,308.200928 1326.364380,309.516327 
	C1327.510132,312.418945 1330.478271,311.739868 1332.911133,307.586823 
M1355.603149,309.436066 
	C1354.472046,310.906281 1353.055176,312.262787 1352.395264,313.920593 
	C1352.212769,314.378906 1354.294189,316.500671 1355.315063,316.484406 
	C1356.610229,316.463715 1359.069092,314.750153 1358.952637,314.275330 
	C1358.529297,312.549927 1357.240234,311.036987 1355.603149,309.436066 
M117.044174,702.637268 
	C113.347649,700.073059 110.295753,700.508423 109.914963,703.840881 
	C109.761902,705.180359 110.598625,706.953003 111.564095,707.988342 
	C112.212746,708.683960 114.610138,708.970459 114.954346,708.503479 
	C116.067513,706.993042 116.593445,705.049805 117.044174,702.637268 
M1163.455933,23.880896 
	C1163.313354,27.759686 1165.175415,30.076014 1169.051392,29.589033 
	C1172.388428,29.169754 1173.890503,26.536251 1172.817871,23.381561 
	C1172.335449,21.962591 1170.248657,19.982317 1169.136841,20.129040 
	C1167.197388,20.385014 1165.449097,22.089695 1163.455933,23.880896 
M506.652008,155.722839 
	C505.521454,157.059784 503.990021,158.263290 503.476654,159.805649 
	C503.295837,160.348877 505.515411,162.319244 506.811218,162.518646 
	C507.774780,162.666931 510.066498,160.761322 509.934509,160.205841 
	C509.554382,158.606140 508.245697,157.227081 506.652008,155.722839 
M89.785797,705.988281 
	C90.368134,704.030029 91.346344,702.059998 91.288704,700.120789 
	C91.271675,699.547791 88.050339,698.295654 86.808296,698.750305 
	C85.555161,699.208984 83.872581,702.201782 84.236588,702.685303 
	C85.390388,704.217957 87.412277,705.097107 89.785797,705.988281 
M449.853363,648.823547 
	C448.641022,646.470154 446.834625,644.934937 444.349854,646.673645 
	C443.276245,647.424866 442.333588,649.573486 442.638489,650.748108 
	C442.951324,651.953247 445.379913,653.802368 445.971008,653.512329 
	C447.573395,652.725891 448.692627,650.954834 449.853363,648.823547 
M1018.575989,234.055832 
	C1021.301453,233.738144 1022.967041,231.770905 1021.368408,229.766830 
	C1019.952698,227.992172 1016.940002,227.422379 1014.546936,226.556763 
	C1014.088623,226.391022 1012.617554,227.637390 1012.651123,227.703201 
	C1013.473083,229.314774 1014.325562,230.938385 1015.418457,232.372620 
	C1015.969849,233.096344 1017.001770,233.453842 1018.575989,234.055832 
M1337.039062,275.297485 
	C1338.404663,274.504791 1340.021362,273.930420 1341.002197,272.802856 
	C1341.353638,272.399017 1340.158936,269.688812 1339.688110,269.693970 
	C1337.378662,269.719269 1335.075562,270.304718 1331.759155,270.862244 
	C1334.059204,272.931610 1335.237305,273.991608 1337.039062,275.297485 
M456.810272,303.244415 
	C455.186035,302.648376 453.588531,301.845795 451.915161,301.629456 
	C451.577972,301.585846 450.294922,304.024506 450.622498,304.855927 
	C451.064392,305.977478 453.106720,307.594086 453.643707,307.330505 
	C454.975159,306.676971 455.841858,305.076538 456.810272,303.244415 
M426.627045,654.622620 
	C427.835052,655.876648 428.858704,657.623108 430.329987,658.173889 
	C431.049683,658.443298 433.175079,656.685547 433.590546,655.476440 
	C433.905151,654.560791 432.381958,651.958679 431.914581,652.016907 
	C430.141205,652.237854 428.464600,653.235657 426.627045,654.622620 
M1286.767822,336.574585 
	C1285.053101,336.457947 1283.148926,335.861938 1281.705688,336.432404 
	C1281.012085,336.706573 1280.541138,339.599152 1281.150146,340.547699 
	C1281.784668,341.536041 1284.657471,342.401031 1285.114258,341.928955 
	C1286.224976,340.781128 1286.502441,338.826965 1286.767822,336.574585 
M814.451355,21.589493 
	C814.896118,23.416361 815.149231,25.337482 815.959290,26.984722 
	C816.108276,27.287590 818.952759,26.899178 819.754456,26.063589 
	C820.515320,25.270502 820.688110,22.455648 820.324219,22.291334 
	C818.679993,21.548960 816.753723,21.431488 814.451355,21.589493 
M599.386841,374.054443 
	C601.138184,374.761871 602.854248,375.761963 604.664551,375.980255 
	C605.143982,376.038055 606.661804,373.458984 606.367065,372.502106 
	C605.968384,371.207794 603.664124,369.209076 603.254944,369.438080 
	C601.680237,370.319336 600.535034,371.968109 599.386841,374.054443 
M925.655273,169.521576 
	C923.907959,170.154221 922.160645,170.786865 920.413330,171.419540 
	C920.932312,172.847183 921.080505,174.720810 922.089172,175.559631 
	C922.879150,176.216476 925.812561,175.896408 925.929688,175.482758 
	C926.419983,173.750656 926.207886,171.819733 925.655273,169.521576 
M1246.864746,282.602386 
	C1250.148071,284.204193 1253.012085,283.415771 1257.001221,281.201355 
	C1254.186035,279.930908 1252.589233,279.182587 1250.970337,278.485413 
	C1247.327515,276.916565 1245.963013,278.273590 1246.864746,282.602386 
M422.621094,307.339630 
	C421.978119,305.913544 421.447479,304.409576 420.570923,303.145447 
	C420.439636,302.956116 418.145630,303.644714 417.817322,304.366302 
	C417.376221,305.335876 417.559204,307.607635 418.029388,307.776733 
	C419.285614,308.228485 420.838287,307.856049 422.621094,307.339630 
M1001.821472,585.693359 
	C1003.702332,585.815735 1005.646118,586.229370 1007.417969,585.847046 
	C1007.838684,585.756287 1008.203186,582.747009 1007.623718,581.549561 
	C1007.187256,580.647583 1004.394531,579.762817 1004.051331,580.141113 
	C1002.836060,581.480713 1002.222290,583.366089 1001.821472,585.693359 
M21.867403,437.937622 
	C23.340830,438.489227 24.788031,439.241669 26.307564,439.440063 
	C26.652992,439.485168 27.816212,437.447784 27.589348,436.661377 
	C27.290262,435.624664 25.465015,433.998779 25.208937,434.152039 
	C23.890331,434.941132 22.863964,436.218597 21.867403,437.937622 
M1335.229614,222.856689 
	C1333.673096,222.773849 1332.081787,222.494354 1330.586304,222.757828 
	C1330.247070,222.817566 1329.753662,225.082031 1330.199951,225.758774 
	C1330.788574,226.651123 1332.998535,227.648499 1333.184692,227.436417 
	C1334.197876,226.281708 1334.803345,224.769119 1335.229614,222.856689 
M897.538818,88.890160 
	C897.874084,87.344559 898.410828,85.796799 898.394348,84.254951 
	C898.390503,83.896904 896.262878,83.021667 895.537537,83.343246 
	C894.556458,83.778191 893.187012,85.756844 893.374023,85.998672 
	C894.312012,87.211853 895.703247,88.074593 897.538818,88.890160 
M1306.752075,641.401855 
	C1305.043213,641.301636 1303.270752,640.925354 1301.669922,641.294189 
	C1301.266357,641.387146 1300.955444,644.069824 1301.455811,645.176392 
	C1301.826538,645.996582 1304.359131,646.831116 1304.584229,646.556641 
	C1305.650391,645.256531 1306.255005,643.577698 1306.752075,641.401855 
M416.957977,331.208038 
	C418.182129,331.957520 419.347351,333.060486 420.659943,333.279175 
	C421.171173,333.364380 422.617615,331.406158 422.538666,330.471558 
	C422.457947,329.515442 420.731628,327.789795 420.250031,327.952545 
	C418.984802,328.380188 418.004883,329.651794 416.957977,331.208038 
M526.151001,266.384338 
	C527.701416,265.659607 529.425598,265.140411 530.687195,264.074005 
	C531.027222,263.786621 530.281921,261.231628 529.464600,260.801819 
	C528.387878,260.235657 525.623474,260.479279 525.542480,260.828522 
	C525.162903,262.466156 525.454956,264.259460 526.151001,266.384338 
M812.770996,298.553284 
	C812.016479,299.937042 810.980286,301.264008 810.682739,302.739868 
	C810.595764,303.171265 812.669861,304.619202 813.648071,304.523468 
	C814.654602,304.424927 816.460205,302.628510 816.300293,302.240051 
	C815.712463,300.811615 814.453796,299.659210 812.770996,298.553284 
M497.692963,560.517944 
	C499.273651,560.559692 500.942596,560.899048 502.384003,560.471313 
	C502.847870,560.333740 503.197968,557.912964 502.713776,557.014160 
	C502.229919,556.115967 500.636749,555.815369 499.529907,555.252808 
	C498.771210,556.809998 498.012482,558.367126 497.692963,560.517944 
M154.096710,147.612228 
	C155.639496,147.638565 157.248505,147.909698 158.679489,147.522644 
	C159.046631,147.423340 159.244858,145.061386 158.783981,144.087585 
	C158.450455,143.382843 156.240921,142.692123 156.006851,142.966568 
	C155.031601,144.109909 154.487564,145.621063 154.096710,147.612228 
M784.122375,304.695221 
	C782.757812,305.433441 781.294373,306.052155 780.122192,307.022705 
	C779.916931,307.192596 780.732056,309.422089 781.437134,309.668976 
	C782.478821,310.033691 784.713989,309.776093 784.897217,309.247955 
	C785.327759,308.007080 784.843323,306.448792 784.122375,304.695221 
M608.931519,334.415527 
	C607.764954,333.377777 606.729431,331.923096 605.370911,331.496002 
	C604.781555,331.310699 603.186096,333.102142 602.711365,334.266418 
	C602.455261,334.894257 603.768616,336.952698 604.084534,336.890747 
	C605.724487,336.569153 607.271301,335.772369 608.931519,334.415527 
M434.729156,222.039185 
	C434.714966,223.604553 434.488037,225.222382 434.851166,226.694687 
	C434.931854,227.021790 437.416321,227.304688 438.206421,226.758301 
	C439.045288,226.178192 439.803986,223.795563 439.522278,223.575226 
	C438.337158,222.648422 436.750000,222.235703 434.729156,222.039185 
M1222.702637,147.299500 
	C1223.636230,144.952728 1223.390869,142.841049 1220.539185,142.631195 
	C1219.616821,142.563309 1217.676514,144.539703 1217.706909,145.534988 
	C1217.795898,148.449722 1219.854614,148.755402 1222.702637,147.299500 
M1153.270874,652.087463 
	C1154.355347,653.278931 1155.439697,654.470459 1156.524170,655.661926 
	C1157.114014,654.374573 1157.703857,653.087280 1158.293701,651.799927 
	C1156.708252,651.704224 1155.122803,651.608521 1153.270874,652.087463 
M1291.361938,152.427673 
	C1288.453857,152.659531 1287.444092,154.469940 1288.602173,156.828415 
	C1289.017334,157.673904 1291.258545,157.622742 1292.666260,157.980820 
	C1292.460571,156.194016 1292.254761,154.407211 1291.361938,152.427673 
M212.205933,8.472495 
	C214.936630,9.264071 216.504578,8.174775 216.058960,5.419569 
	C215.911789,4.509550 214.086517,3.870943 213.028503,3.108236 
	C212.565475,4.771756 212.102448,6.435275 212.205933,8.472495 
M537.748230,639.127441 
	C539.737061,636.885986 539.642334,634.773926 536.770569,633.686218 
	C535.952393,633.376343 533.695740,634.597412 533.435852,635.500977 
	C532.623535,638.325745 533.851746,640.010010 537.748230,639.127441 
M1363.678101,634.866882 
	C1363.123047,633.306396 1362.568115,631.745911 1362.013062,630.185425 
	C1360.958008,631.170654 1359.902832,632.155884 1358.847778,633.141113 
	C1360.301147,633.839294 1361.754517,634.537476 1363.678101,634.866882 
M1343.133301,612.227295 
	C1341.421753,612.222839 1339.710083,612.218384 1337.998535,612.213928 
	C1338.422241,613.480530 1338.539551,615.565857 1339.327026,615.860535 
	C1341.711182,616.752625 1343.498657,615.859741 1343.133301,612.227295 
M1282.374023,677.354553 
	C1282.870483,675.796936 1283.366943,674.239380 1283.863525,672.681763 
	C1282.416260,672.802673 1280.969116,672.923584 1279.521851,673.044495 
	C1280.254028,674.489441 1280.986328,675.934387 1282.374023,677.354553 
M281.374634,252.351151 
	C278.715637,252.395294 277.044220,253.549271 278.221802,256.284424 
	C278.578094,257.112000 280.994781,257.930634 281.837952,257.505188 
	C284.324097,256.250793 284.384125,254.317459 281.374634,252.351151 
M221.039902,223.626495 
	C222.271423,222.875565 223.720673,222.307571 224.600143,221.260834 
	C224.859726,220.951874 223.722443,218.742645 222.839020,218.399841 
	C221.915695,218.041565 219.566544,218.781830 219.520752,219.218231 
	C219.380081,220.558090 220.044083,221.982437 221.039902,223.626495 
M661.779907,23.676029 
	C660.518982,26.040438 660.859192,28.023924 663.694641,28.423800 
	C664.548767,28.544266 666.464966,26.876308 666.502014,25.970747 
	C666.612793,23.257654 665.026489,22.118387 661.779907,23.676029 
M621.717285,495.187805 
	C622.095337,496.705536 622.262817,498.337830 622.986450,499.667450 
	C623.189514,500.040588 625.502747,499.919067 626.001465,499.319855 
	C626.697571,498.483429 627.102844,496.131989 626.749573,495.923248 
	C625.458923,495.160645 623.801880,495.018066 621.717285,495.187805 
M401.285004,655.092224 
	C399.668549,655.026917 398.052124,654.961670 396.435669,654.896362 
	C396.923981,656.257080 397.412292,657.617859 397.900604,658.978577 
	C399.120667,657.887268 400.340729,656.795959 401.285004,655.092224 
M6.046317,598.630676 
	C8.523874,599.221008 10.251111,598.337219 9.729050,595.732117 
	C9.538074,594.779114 7.413869,594.213623 6.171581,593.471313 
	C5.918081,595.068298 5.664581,596.665344 6.046317,598.630676 
M428.313782,103.026077 
	C429.921448,103.230186 431.529114,103.434288 433.136780,103.638397 
	C432.755981,102.256393 432.774261,100.078461 431.916229,99.648209 
	C429.729095,98.551491 428.109833,99.555031 428.313782,103.026077 
M36.426163,528.241943 
	C36.071884,526.630920 35.717606,525.019897 35.363323,523.408875 
	C34.160664,524.250305 32.958004,525.091736 31.755356,525.933167 
	C33.120071,526.829956 34.484787,527.726807 36.426163,528.241943 
M1309.754883,328.246338 
	C1307.275146,329.905640 1307.459839,331.862457 1309.718628,333.259247 
	C1310.425781,333.696564 1312.132568,332.517761 1313.381714,332.078735 
	C1312.416504,330.753540 1311.451416,329.428375 1309.754883,328.246338 
M812.605835,289.030273 
	C810.970276,286.608215 809.047913,286.602692 807.653564,288.980347 
	C807.242676,289.680969 808.154663,292.036987 809.013428,292.431854 
	C811.268127,293.468719 812.813293,292.467529 812.605835,289.030273 
M27.365986,284.688263 
	C27.650681,287.514221 29.265642,288.640137 31.707602,287.298950 
	C32.426437,286.904144 32.203510,284.794678 32.412189,283.471008 
	C30.792910,283.645782 29.173630,283.820526 27.365986,284.688263 
M381.886902,730.986145 
	C383.501373,731.195312 385.115875,731.404541 386.730347,731.613770 
	C386.552063,730.295044 386.818054,728.200806 386.115051,727.798096 
	C383.676361,726.401062 382.090973,727.573853 381.886902,730.986145 
M77.728653,340.565613 
	C76.243790,339.930664 74.758926,339.295715 73.274063,338.660767 
	C73.240349,340.087463 73.206627,341.514191 73.172913,342.940918 
	C74.688377,342.386414 76.203850,341.831909 77.728653,340.565613 
M1263.286499,111.616203 
	C1264.604004,112.548233 1265.921631,113.480263 1267.239136,114.412300 
	C1267.598755,113.029663 1267.958252,111.647034 1268.317749,110.264381 
	C1266.704590,110.481567 1265.091553,110.698761 1263.286499,111.616203 
M1196.001587,307.724243 
	C1195.250244,305.173615 1193.579224,304.473969 1191.693359,306.268799 
	C1191.046753,306.884186 1191.078369,309.367798 1191.742310,309.986176 
	C1193.672729,311.783997 1195.305786,310.985901 1196.001587,307.724243 
M179.652145,640.808350 
	C180.643356,639.515625 181.634567,638.222900 182.625748,636.930176 
	C181.227310,636.560730 179.828873,636.191345 178.430435,635.821899 
	C178.598297,637.421021 178.766159,639.020142 179.652145,640.808350 
M128.435287,277.886719 
	C129.449982,279.133942 130.464691,280.381134 131.479385,281.628357 
	C132.181076,280.370209 132.882767,279.112061 133.584457,277.853912 
	C131.994080,277.657410 130.403687,277.460876 128.435287,277.886719 
M1264.215332,244.750748 
	C1263.556519,243.297272 1262.897583,241.843781 1262.238770,240.390274 
	C1261.247681,241.398834 1260.256714,242.407394 1259.265747,243.415985 
	C1260.744263,244.037872 1262.222656,244.659760 1264.215332,244.750748 
M1055.853271,531.331543 
	C1055.654785,532.938782 1055.456299,534.545959 1055.257812,536.153198 
	C1056.628174,535.801086 1057.998413,535.449036 1059.368774,535.096924 
	C1058.438843,533.785156 1057.508789,532.473389 1055.853271,531.331543 
M160.983139,441.534760 
	C160.790359,443.143860 160.597595,444.752960 160.404816,446.362091 
	C161.778732,445.991058 163.152649,445.620056 164.526550,445.249023 
	C163.574890,443.940155 162.623215,442.631287 160.983139,441.534760 
M59.210384,488.137756 
	C59.102863,486.752625 59.193356,485.297485 58.745872,484.032623 
	C58.636669,483.723938 56.475296,483.654541 55.779228,484.174103 
	C55.050209,484.718231 54.949158,486.103668 54.573654,487.121399 
	C55.939358,487.606628 57.305065,488.091858 59.210384,488.137756 
M669.873657,502.675446 
	C668.909363,500.061279 667.150085,499.187225 665.084961,501.223541 
	C664.425110,501.874237 664.454956,504.398621 665.127563,505.008209 
	C667.216003,506.900818 669.009766,506.124115 669.873657,502.675446 
M872.071960,573.217590 
	C871.906128,571.775085 871.740295,570.332520 871.574524,568.890015 
	C870.503418,569.029358 869.129578,568.818298 868.447205,569.407715 
	C867.779297,569.984619 867.355713,572.117676 867.622925,572.283813 
	C868.789062,573.008667 870.245728,573.266113 872.071960,573.217590 
M359.157806,217.591537 
	C358.536316,216.097641 357.914856,214.603729 357.293365,213.109833 
	C356.276764,214.099121 355.260162,215.088409 354.243561,216.077713 
	C355.708893,216.745987 357.174255,217.414246 359.157806,217.591537 
M33.241356,543.250122 
	C31.967131,544.240479 30.692904,545.230774 29.418676,546.221130 
	C30.491459,546.994629 31.786047,548.603394 32.596294,548.388184 
	C35.248543,547.683960 35.733562,545.811829 33.241356,543.250122 
M808.274353,73.621246 
	C809.586243,74.553574 810.898071,75.485893 812.209900,76.418213 
	C812.572327,75.033592 812.934753,73.648979 813.297241,72.264381 
	C811.688782,72.480751 810.080322,72.697121 808.274353,73.621246 
M892.591187,323.154480 
	C890.969055,323.176666 889.346985,323.198853 887.724854,323.221008 
	C888.249634,324.546967 888.774353,325.872925 889.299072,327.198883 
	C890.478638,326.063721 891.658142,324.928558 892.591187,323.154480 
M1228.631226,194.539215 
	C1227.154175,193.925369 1225.677246,193.311508 1224.200195,192.697678 
	C1224.157715,194.103500 1224.115356,195.509323 1224.072998,196.915146 
	C1225.576904,196.353775 1227.080811,195.792404 1228.631226,194.539215 
M343.388947,546.160156 
	C344.595428,548.553650 346.325867,549.464722 348.168579,547.081360 
	C348.747528,546.332458 348.502014,543.923340 347.793182,543.388489 
	C345.431061,541.606262 343.963470,542.974060 343.388947,546.160156 
M709.526917,535.148987 
	C708.212280,534.228455 706.897583,533.307922 705.582886,532.387390 
	C705.202576,533.660095 704.822205,534.932800 704.441956,536.205444 
	C706.057007,536.073425 707.671997,535.941345 709.526917,535.148987 
M606.636780,225.095596 
	C604.873657,227.023544 604.920410,228.878677 607.515564,229.641205 
	C608.373352,229.893234 610.543213,228.569565 610.724304,227.682800 
	C611.230591,225.202606 609.903076,223.926193 606.636780,225.095596 
M1298.697388,382.046844 
	C1298.998047,383.621613 1299.298706,385.196381 1299.599487,386.771118 
	C1300.715332,386.108215 1301.831055,385.445312 1302.946899,384.782471 
	C1301.723999,383.746185 1300.501099,382.709930 1298.697388,382.046844 
M568.639099,86.270676 
	C567.560547,85.066956 566.482056,83.863243 565.403564,82.659508 
	C564.727966,83.808189 564.052368,84.956863 563.376831,86.105553 
	C565.005188,86.363853 566.633484,86.622147 568.639099,86.270676 
M38.864845,498.254608 
	C40.872665,500.177490 42.586861,499.577179 43.289703,497.227722 
	C43.528809,496.428406 42.210388,494.359283 41.339264,494.183929 
	C38.817471,493.676270 37.702026,495.067719 38.864845,498.254608 
z"/>
<path fill="#BBB4B4" opacity="1.000000" stroke="none" 
	d="
M243.550018,1.000003 
	C242.546692,2.455400 241.093384,3.910795 239.640076,5.366187 
	C238.339645,3.943664 237.039200,2.521144 235.369385,1.049312 
	C237.700012,1.000000 240.400024,1.000000 243.550018,1.000003 
z"/>
<path fill="#8F89B3" opacity="1.000000" stroke="none" 
	d="
M598.571533,1.000000 
	C597.948181,2.643394 596.896423,4.286787 595.844604,5.930175 
	C594.956360,4.524087 594.068115,3.118004 593.089905,1.355960 
	C594.714355,1.000000 596.428711,1.000000 598.571533,1.000000 
z"/>
<path fill="#BBB4B4" opacity="1.000000" stroke="none" 
	d="
M276.269196,86.957985 
	C277.027893,83.930519 277.224701,80.666656 278.920074,78.684494 
	C281.583008,75.571045 286.802917,76.174248 289.595490,79.088547 
	C292.455994,82.073730 292.519196,86.841133 289.738800,89.902901 
	C286.899689,93.029335 282.331207,93.502205 279.014191,90.797264 
	C277.915131,89.900993 277.245300,88.478302 276.269196,86.957985 
z"/>
<path fill="#ADA8AD" opacity="1.000000" stroke="none" 
	d="
M1244.017334,689.966125 
	C1240.757080,685.911011 1240.722778,681.997498 1244.106079,678.571899 
	C1246.793701,675.850708 1250.250610,675.392273 1253.685425,677.380188 
	C1257.658569,679.679688 1258.798218,684.722168 1256.356689,688.615967 
	C1253.803711,692.687500 1249.288208,693.280396 1244.017334,689.966125 
M1253.682007,681.695251 
	C1251.233521,679.631531 1248.427002,678.896423 1246.264526,681.540466 
	C1245.298706,682.721375 1245.026978,685.790771 1245.873779,686.800049 
	C1246.936035,688.065796 1249.720215,688.939392 1251.313110,688.468079 
	C1253.909424,687.700073 1255.858398,685.582092 1253.682007,681.695251 
z"/>
<path fill="#BBB4B4" opacity="1.000000" stroke="none" 
	d="
M480.730316,512.165283 
	C479.961121,514.904541 479.572906,517.799255 477.949524,519.546143 
	C477.065796,520.497070 473.614594,520.179443 472.182373,519.188965 
	C470.749847,518.198364 469.461151,515.458435 469.804413,513.846130 
	C470.199860,511.988556 472.339600,509.334869 473.925690,509.184967 
	C476.046661,508.984589 478.363617,510.858917 480.730316,512.165283 
z"/>
<path fill="#3F3E3E" opacity="1.000000" stroke="none" 
	d="
M1057.332153,20.431490 
	C1060.562256,17.277046 1064.153687,16.812313 1066.755981,19.805498 
	C1068.233154,21.504663 1068.743652,25.015156 1068.149658,27.311657 
	C1067.303223,30.584343 1064.041260,31.391375 1060.801025,30.699469 
	C1056.634521,29.809721 1055.290161,26.064806 1057.332153,20.431490 
z"/>
<path fill="#3F3E3E" opacity="1.000000" stroke="none" 
	d="
M200.488922,92.408691 
	C198.467163,96.651947 195.044510,97.163155 192.094589,95.111191 
	C190.495529,93.998886 189.353653,90.507454 189.827728,88.524948 
	C190.612915,85.241310 194.119247,83.760498 196.961548,85.469292 
	C198.828842,86.591904 199.452652,89.782860 200.488922,92.408691 
z"/>
<path fill="#BBB4B4" opacity="1.000000" stroke="none" 
	d="
M732.393616,257.537598 
	C728.253479,257.436310 725.931091,255.566010 727.010376,251.660080 
	C727.413025,250.203049 729.787842,248.278732 731.156555,248.360214 
	C732.822327,248.459427 735.694885,250.464417 735.682434,251.619705 
	C735.661438,253.580170 733.790588,255.520813 732.393616,257.537598 
z"/>
<path fill="#BBB4B4" opacity="1.000000" stroke="none" 
	d="
M755.480896,718.470276 
	C754.817261,716.094971 753.808960,713.745117 754.298096,711.765137 
	C754.542603,710.775085 757.756592,709.649780 759.196655,710.068298 
	C760.635376,710.486389 762.228027,712.625916 762.529358,714.239380 
	C763.161072,717.621033 760.433777,719.219666 755.480896,718.470276 
z"/>
<path fill="#8F89B3" opacity="1.000000" stroke="none" 
	d="
M1280.142944,386.066284 
	C1285.200317,387.574921 1286.964233,391.556610 1283.923828,394.222931 
	C1282.772461,395.232697 1280.446045,395.867096 1279.087280,395.404083 
	C1277.731567,394.942108 1275.829712,392.607178 1276.094116,391.598297 
	C1276.623169,389.579163 1278.467896,387.904724 1280.142944,386.066284 
z"/>
<path fill="#3F3E3E" opacity="1.000000" stroke="none" 
	d="
M973.133301,124.262070 
	C975.158203,125.781189 977.431335,127.063217 978.229187,128.964371 
	C978.666748,130.006927 976.970703,132.658981 975.576599,133.536194 
	C974.405701,134.272873 971.937439,134.055847 970.640198,133.272675 
	C966.957275,131.049255 968.055176,126.790260 973.133301,124.262070 
z"/>
<path fill="#8F89B3" opacity="1.000000" stroke="none" 
	d="
M848.682983,384.173157 
	C849.975525,387.263885 849.848267,390.129456 846.782593,391.035400 
	C845.075195,391.539978 842.143494,390.669891 840.976807,389.348297 
	C840.063904,388.314148 840.309875,385.102844 841.289673,383.793121 
	C843.300781,381.104919 846.088562,381.409180 848.682983,384.173157 
z"/>
<path fill="#BBB4B4" opacity="1.000000" stroke="none" 
	d="
M375.037842,51.123032 
	C374.658936,54.512444 372.727417,55.995552 369.947968,55.115040 
	C368.630310,54.697620 367.052582,52.669041 367.014893,51.330349 
	C366.977509,50.002125 368.453461,47.912159 369.749115,47.414333 
	C372.500153,46.357285 374.476929,47.763008 375.037842,51.123032 
z"/>
<path fill="#BBB4B4" opacity="1.000000" stroke="none" 
	d="
M1091.406494,740.390198 
	C1090.979980,742.625244 1090.707886,744.827332 1089.574097,746.413208 
	C1089.163940,746.986633 1086.083618,746.609558 1085.310791,745.720032 
	C1084.362427,744.628418 1083.799805,742.169006 1084.400635,740.963684 
	C1085.988037,737.778259 1088.603760,737.731750 1091.406494,740.390198 
z"/>
<path fill="#ADA8AD" opacity="1.000000" stroke="none" 
	d="
M298.856750,756.748657 
	C295.698456,753.031067 296.123322,749.640137 299.633606,749.133423 
	C300.897034,748.951050 302.739960,749.499146 303.552460,750.402710 
	C304.361298,751.302124 304.887085,753.810913 304.344818,754.304626 
	C302.973663,755.552917 300.932953,756.065796 298.856750,756.748657 
z"/>
<path fill="#3F3E3E" opacity="1.000000" stroke="none" 
	d="
M485.590210,527.236450 
	C484.921417,523.739685 486.073395,521.284973 489.322815,521.225525 
	C491.080597,521.193237 493.753693,522.510437 494.393616,523.942749 
	C495.015625,525.334900 494.166229,528.431213 492.904266,529.399719 
	C490.311768,531.389343 487.552490,530.463318 485.590210,527.236450 
z"/>
<path fill="#8F89B3" opacity="1.000000" stroke="none" 
	d="
M1232.114014,437.076324 
	C1231.487183,433.575500 1232.028809,430.657379 1235.879517,430.869324 
	C1237.477661,430.957275 1239.581299,432.839691 1240.276611,434.423492 
	C1240.728027,435.451355 1239.228027,438.569885 1238.287109,438.715698 
	C1236.387085,439.010040 1234.272217,437.916931 1232.114014,437.076324 
z"/>
<path fill="#BBB4B4" opacity="1.000000" stroke="none" 
	d="
M1053.009033,12.228721 
	C1053.695190,14.412881 1054.563110,16.400772 1054.408325,18.305561 
	C1054.354248,18.970695 1051.159424,20.295860 1050.480225,19.809492 
	C1048.938110,18.705120 1047.013672,16.568670 1047.152954,15.023817 
	C1047.407227,12.203528 1050.053589,11.477624 1053.009033,12.228721 
z"/>
<path fill="#3F3E3E" opacity="1.000000" stroke="none" 
	d="
M539.970215,512.959595 
	C540.327820,515.396484 541.016968,517.896179 540.176880,519.672791 
	C539.774841,520.523010 536.110168,520.684753 534.606873,519.880432 
	C533.473633,519.274109 532.574646,516.320923 533.074219,514.967041 
	C534.133606,512.096619 536.763184,511.421936 539.970215,512.959595 
z"/>
<path fill="#8F89B3" opacity="1.000000" stroke="none" 
	d="
M1112.503906,347.074860 
	C1115.976685,346.880249 1118.198364,348.337219 1118.128906,351.467499 
	C1118.092407,353.119141 1116.805298,355.652039 1115.482544,356.131683 
	C1113.900513,356.705383 1110.884766,356.165039 1109.884644,354.954742 
	C1107.240601,351.755341 1108.358521,348.858063 1112.503906,347.074860 
M1114.244385,355.063446 
	C1115.010986,353.531189 1115.777588,351.998901 1116.544189,350.466614 
	C1115.282715,349.930939 1113.986572,348.922089 1112.771118,349.011566 
	C1111.823853,349.081268 1110.094849,351.029816 1110.229858,351.262329 
	C1111.062744,352.695984 1112.326050,353.879669 1114.244385,355.063446 
z"/>
<path fill="#8F89B3" opacity="1.000000" stroke="none" 
	d="
M756.217468,19.746281 
	C756.623230,17.480213 756.846008,15.187095 758.047424,13.667850 
	C758.525330,13.063483 761.926453,13.636883 762.634888,14.637938 
	C763.505920,15.868818 762.953125,18.107311 763.015686,19.910292 
	C760.819397,19.950024 758.623108,19.989756 756.217468,19.746281 
z"/>
<path fill="#BBB4B4" opacity="1.000000" stroke="none" 
	d="
M435.864380,345.713165 
	C437.015198,343.934814 438.035126,342.134033 439.579681,341.212463 
	C440.101929,340.900879 442.648193,342.604462 443.000519,343.770508 
	C443.356506,344.948517 441.991394,347.876282 441.636475,347.834991 
	C439.693726,347.609039 437.829773,346.705444 435.864380,345.713165 
z"/>
<path fill="#8F89B3" opacity="1.000000" stroke="none" 
	d="
M446.335358,625.469238 
	C445.371857,627.421265 444.582184,629.359314 443.151733,630.477844 
	C442.526978,630.966309 440.039398,630.166992 439.390533,629.250000 
	C438.599579,628.132141 438.298340,626.076233 438.763489,624.775940 
	C439.981537,621.370972 443.221222,621.600342 446.335358,625.469238 
z"/>
<path fill="#ADA8AD" opacity="1.000000" stroke="none" 
	d="
M1332.900391,307.896332 
	C1330.478271,311.739868 1327.510132,312.418945 1326.364380,309.516327 
	C1325.845215,308.200928 1326.572754,305.301697 1327.649170,304.663391 
	C1330.333618,303.071625 1332.300659,304.514038 1332.900391,307.896332 
z"/>
<path fill="#ADA8AD" opacity="1.000000" stroke="none" 
	d="
M1355.940430,309.440002 
	C1357.240234,311.036987 1358.529297,312.549927 1358.952637,314.275330 
	C1359.069092,314.750153 1356.610229,316.463715 1355.315063,316.484406 
	C1354.294189,316.500671 1352.212769,314.378906 1352.395264,313.920593 
	C1353.055176,312.262787 1354.472046,310.906281 1355.940430,309.440002 
z"/>
<path fill="#8F89B3" opacity="1.000000" stroke="none" 
	d="
M117.194916,702.955322 
	C116.593445,705.049805 116.067513,706.993042 114.954346,708.503479 
	C114.610138,708.970459 112.212746,708.683960 111.564095,707.988342 
	C110.598625,706.953003 109.761902,705.180359 109.914963,703.840881 
	C110.295753,700.508423 113.347649,700.073059 117.194916,702.955322 
z"/>
<path fill="#8F89B3" opacity="1.000000" stroke="none" 
	d="
M1163.538330,23.534052 
	C1165.449097,22.089695 1167.197388,20.385014 1169.136841,20.129040 
	C1170.248657,19.982317 1172.335449,21.962591 1172.817871,23.381561 
	C1173.890503,26.536251 1172.388428,29.169754 1169.051392,29.589033 
	C1165.175415,30.076014 1163.313354,27.759686 1163.538330,23.534052 
M1166.790283,27.805637 
	C1169.751831,28.392628 1171.755615,27.426338 1171.535645,24.184483 
	C1171.467163,23.175215 1170.197021,21.733200 1169.202759,21.449127 
	C1168.253540,21.177900 1166.172729,21.924629 1165.960449,22.634201 
	C1165.526489,24.084156 1166.012939,25.809553 1166.790283,27.805637 
z"/>
<path fill="#BBB4B4" opacity="1.000000" stroke="none" 
	d="
M506.976898,155.742096 
	C508.245697,157.227081 509.554382,158.606140 509.934509,160.205841 
	C510.066498,160.761322 507.774780,162.666931 506.811218,162.518646 
	C505.515411,162.319244 503.295837,160.348877 503.476654,159.805649 
	C503.990021,158.263290 505.521454,157.059784 506.976898,155.742096 
z"/>
<path fill="#8F89B3" opacity="1.000000" stroke="none" 
	d="
M89.442154,706.108643 
	C87.412277,705.097107 85.390388,704.217957 84.236588,702.685303 
	C83.872581,702.201782 85.555161,699.208984 86.808296,698.750305 
	C88.050339,698.295654 91.271675,699.547791 91.288704,700.120789 
	C91.346344,702.059998 90.368134,704.030029 89.442154,706.108643 
z"/>
<path fill="#8F89B3" opacity="1.000000" stroke="none" 
	d="
M449.928406,649.198853 
	C448.692627,650.954834 447.573395,652.725891 445.971008,653.512329 
	C445.379913,653.802368 442.951324,651.953247 442.638489,650.748108 
	C442.333588,649.573486 443.276245,647.424866 444.349854,646.673645 
	C446.834625,644.934937 448.641022,646.470154 449.928406,649.198853 
z"/>
<path fill="#3F3E3E" opacity="1.000000" stroke="none" 
	d="
M1018.196228,234.016388 
	C1017.001770,233.453842 1015.969849,233.096344 1015.418457,232.372620 
	C1014.325562,230.938385 1013.473083,229.314774 1012.651123,227.703201 
	C1012.617554,227.637390 1014.088623,226.391022 1014.546936,226.556763 
	C1016.940002,227.422379 1019.952698,227.992172 1021.368408,229.766830 
	C1022.967041,231.770905 1021.301453,233.738144 1018.196228,234.016388 
z"/>
<path fill="#ADA8AD" opacity="1.000000" stroke="none" 
	d="
M1336.727295,275.174561 
	C1335.237305,273.991608 1334.059204,272.931610 1331.759155,270.862244 
	C1335.075562,270.304718 1337.378662,269.719269 1339.688110,269.693970 
	C1340.158936,269.688812 1341.353638,272.399017 1341.002197,272.802856 
	C1340.021362,273.930420 1338.404663,274.504791 1336.727295,275.174561 
z"/>
<path fill="#ADA8AD" opacity="1.000000" stroke="none" 
	d="
M456.852783,303.550476 
	C455.841858,305.076538 454.975159,306.676971 453.643707,307.330505 
	C453.106720,307.594086 451.064392,305.977478 450.622498,304.855927 
	C450.294922,304.024506 451.577972,301.585846 451.915161,301.629456 
	C453.588531,301.845795 455.186035,302.648376 456.852783,303.550476 
z"/>
<path fill="#8F89B3" opacity="1.000000" stroke="none" 
	d="
M426.689423,654.282776 
	C428.464600,653.235657 430.141205,652.237854 431.914581,652.016907 
	C432.381958,651.958679 433.905151,654.560791 433.590546,655.476440 
	C433.175079,656.685547 431.049683,658.443298 430.329987,658.173889 
	C428.858704,657.623108 427.835052,655.876648 426.689423,654.282776 
z"/>
<path fill="#8F89B3" opacity="1.000000" stroke="none" 
	d="
M1286.941650,336.886108 
	C1286.502441,338.826965 1286.224976,340.781128 1285.114258,341.928955 
	C1284.657471,342.401031 1281.784668,341.536041 1281.150146,340.547699 
	C1280.541138,339.599152 1281.012085,336.706573 1281.705688,336.432404 
	C1283.148926,335.861938 1285.053101,336.457947 1286.941650,336.886108 
z"/>
<path fill="#8F89B3" opacity="1.000000" stroke="none" 
	d="
M814.690186,21.339195 
	C816.753723,21.431488 818.679993,21.548960 820.324219,22.291334 
	C820.688110,22.455648 820.515320,25.270502 819.754456,26.063589 
	C818.952759,26.899178 816.108276,27.287590 815.959290,26.984722 
	C815.149231,25.337482 814.896118,23.416361 814.690186,21.339195 
z"/>
<path fill="#3F3E3E" opacity="1.000000" stroke="none" 
	d="
M599.308228,373.692566 
	C600.535034,371.968109 601.680237,370.319336 603.254944,369.438080 
	C603.664124,369.209076 605.968384,371.207794 606.367065,372.502106 
	C606.661804,373.458984 605.143982,376.038055 604.664551,375.980255 
	C602.854248,375.761963 601.138184,374.761871 599.308228,373.692566 
z"/>
<path fill="#3F3E3E" opacity="1.000000" stroke="none" 
	d="
M925.954224,169.741608 
	C926.207886,171.819733 926.419983,173.750656 925.929688,175.482758 
	C925.812561,175.896408 922.879150,176.216476 922.089172,175.559631 
	C921.080505,174.720810 920.932312,172.847183 920.413330,171.419525 
	C922.160645,170.786865 923.907959,170.154221 925.954224,169.741608 
z"/>
<path fill="#3F3E3E" opacity="1.000000" stroke="none" 
	d="
M1246.679077,282.309052 
	C1245.963013,278.273590 1247.327515,276.916565 1250.970337,278.485413 
	C1252.589233,279.182587 1254.186035,279.930908 1257.001221,281.201355 
	C1253.012085,283.415771 1250.148071,284.204193 1246.679077,282.309052 
z"/>
<path fill="#ADA8AD" opacity="1.000000" stroke="none" 
	d="
M422.447113,307.575378 
	C420.838287,307.856049 419.285614,308.228485 418.029388,307.776733 
	C417.559204,307.607635 417.376221,305.335876 417.817322,304.366302 
	C418.145630,303.644714 420.439636,302.956116 420.570923,303.145447 
	C421.447479,304.409576 421.978119,305.913544 422.447113,307.575378 
z"/>
<path fill="#8F89B3" opacity="1.000000" stroke="none" 
	d="
M1001.601013,585.368958 
	C1002.222290,583.366089 1002.836060,581.480713 1004.051331,580.141113 
	C1004.394531,579.762817 1007.187256,580.647583 1007.623718,581.549561 
	C1008.203186,582.747009 1007.838684,585.756287 1007.417969,585.847046 
	C1005.646118,586.229370 1003.702332,585.815735 1001.601013,585.368958 
z"/>
<path fill="#ADA8AD" opacity="1.000000" stroke="none" 
	d="
M21.801500,437.631622 
	C22.863964,436.218597 23.890331,434.941132 25.208937,434.152039 
	C25.465015,433.998779 27.290262,435.624664 27.589348,436.661377 
	C27.816212,437.447784 26.652992,439.485168 26.307564,439.440063 
	C24.788031,439.241669 23.340830,438.489227 21.801500,437.631622 
z"/>
<path fill="#ADA8AD" opacity="1.000000" stroke="none" 
	d="
M1335.389404,223.118164 
	C1334.803345,224.769119 1334.197876,226.281708 1333.184692,227.436417 
	C1332.998535,227.648499 1330.788574,226.651123 1330.199951,225.758774 
	C1329.753662,225.082031 1330.247070,222.817566 1330.586304,222.757828 
	C1332.081787,222.494354 1333.673096,222.773849 1335.389404,223.118164 
z"/>
<path fill="#ADA8AD" opacity="1.000000" stroke="none" 
	d="
M897.237061,88.975296 
	C895.703247,88.074593 894.312012,87.211853 893.374023,85.998672 
	C893.187012,85.756844 894.556458,83.778191 895.537537,83.343246 
	C896.262878,83.021667 898.390503,83.896904 898.394348,84.254951 
	C898.410828,85.796799 897.874084,87.344559 897.237061,88.975296 
z"/>
<path fill="#8F89B3" opacity="1.000000" stroke="none" 
	d="
M1306.888062,641.717773 
	C1306.255005,643.577698 1305.650391,645.256531 1304.584229,646.556641 
	C1304.359131,646.831116 1301.826538,645.996582 1301.455811,645.176392 
	C1300.955444,644.069824 1301.266357,641.387146 1301.669922,641.294189 
	C1303.270752,640.925354 1305.043213,641.301636 1306.888062,641.717773 
z"/>
<path fill="#ADA8AD" opacity="1.000000" stroke="none" 
	d="
M416.934631,330.897614 
	C418.004883,329.651794 418.984802,328.380188 420.250031,327.952545 
	C420.731628,327.789795 422.457947,329.515442 422.538666,330.471558 
	C422.617615,331.406158 421.171173,333.364380 420.659943,333.279175 
	C419.347351,333.060486 418.182129,331.957520 416.934631,330.897614 
z"/>
<path fill="#3F3E3E" opacity="1.000000" stroke="none" 
	d="
M525.829102,266.190735 
	C525.454956,264.259460 525.162903,262.466156 525.542480,260.828522 
	C525.623474,260.479279 528.387878,260.235657 529.464600,260.801819 
	C530.281921,261.231628 531.027222,263.786621 530.687195,264.074005 
	C529.425598,265.140411 527.701416,265.659607 525.829102,266.190735 
z"/>
<path fill="#8F89B3" opacity="1.000000" stroke="none" 
	d="
M813.109314,298.478088 
	C814.453796,299.659210 815.712463,300.811615 816.300293,302.240051 
	C816.460205,302.628510 814.654602,304.424927 813.648071,304.523468 
	C812.669861,304.619202 810.595764,303.171265 810.682739,302.739868 
	C810.980286,301.264008 812.016479,299.937042 813.109314,298.478088 
z"/>
<path fill="#8F89B3" opacity="1.000000" stroke="none" 
	d="
M497.473389,560.221130 
	C498.012482,558.367126 498.771210,556.809998 499.529907,555.252808 
	C500.636749,555.815369 502.229919,556.115967 502.713776,557.014160 
	C503.197968,557.912964 502.847870,560.333740 502.384003,560.471313 
	C500.942596,560.899048 499.273651,560.559692 497.473389,560.221130 
z"/>
<path fill="#8F89B3" opacity="1.000000" stroke="none" 
	d="
M153.941040,147.304779 
	C154.487564,145.621063 155.031601,144.109909 156.006851,142.966568 
	C156.240921,142.692123 158.450455,143.382843 158.783981,144.087585 
	C159.244858,145.061386 159.046631,147.423340 158.679489,147.522644 
	C157.248505,147.909698 155.639496,147.638565 153.941040,147.304779 
z"/>
<path fill="#8F89B3" opacity="1.000000" stroke="none" 
	d="
M784.425781,304.857117 
	C784.843323,306.448792 785.327759,308.007080 784.897217,309.247955 
	C784.713989,309.776093 782.478821,310.033691 781.437134,309.668976 
	C780.732056,309.422089 779.916931,307.192596 780.122192,307.022705 
	C781.294373,306.052155 782.757812,305.433441 784.425781,304.857117 
z"/>
<path fill="#3F3E3E" opacity="1.000000" stroke="none" 
	d="
M608.890991,334.778320 
	C607.271301,335.772369 605.724487,336.569153 604.084534,336.890747 
	C603.768616,336.952698 602.455261,334.894257 602.711365,334.266418 
	C603.186096,333.102142 604.781555,331.310699 605.370911,331.496002 
	C606.729431,331.923096 607.764954,333.377777 608.890991,334.778320 
z"/>
<path fill="#3F3E3E" opacity="1.000000" stroke="none" 
	d="
M435.019592,221.837006 
	C436.750000,222.235703 438.337158,222.648422 439.522278,223.575226 
	C439.803986,223.795563 439.045288,226.178192 438.206421,226.758301 
	C437.416321,227.304688 434.931854,227.021790 434.851166,226.694687 
	C434.488037,225.222382 434.714966,223.604553 435.019592,221.837006 
z"/>
<path fill="#8F89B3" opacity="1.000000" stroke="none" 
	d="
M1222.470947,147.520050 
	C1219.854614,148.755402 1217.795898,148.449722 1217.706909,145.534988 
	C1217.676514,144.539703 1219.616821,142.563309 1220.539185,142.631195 
	C1223.390869,142.841049 1223.636230,144.952728 1222.470947,147.520050 
z"/>
<path fill="#8F89B3" opacity="1.000000" stroke="none" 
	d="
M1183.377075,198.284531 
	C1182.606689,199.608673 1181.836182,200.932800 1181.065796,202.256912 
	C1180.044678,201.628098 1179.023682,200.999298 1178.002563,200.370499 
	C1178.899780,199.094315 1179.797119,197.818130 1181.170654,196.704437 
	C1182.223755,197.339462 1182.800415,197.811996 1183.377075,198.284531 
z"/>
<path fill="#ADA8AD" opacity="1.000000" stroke="none" 
	d="
M1153.404053,651.800171 
	C1155.122803,651.608521 1156.708252,651.704224 1158.293701,651.799927 
	C1157.703857,653.087280 1157.114014,654.374573 1156.524170,655.661926 
	C1155.439697,654.470459 1154.355347,653.278931 1153.404053,651.800171 
z"/>
<path fill="#3F3E3E" opacity="1.000000" stroke="none" 
	d="
M1291.705444,152.524048 
	C1292.254761,154.407211 1292.460571,156.194016 1292.666260,157.980820 
	C1291.258545,157.622742 1289.017334,157.673904 1288.602173,156.828415 
	C1287.444092,154.469940 1288.453857,152.659531 1291.705444,152.524048 
z"/>
<path fill="#8F89B3" opacity="1.000000" stroke="none" 
	d="
M211.922668,8.285645 
	C212.102448,6.435275 212.565475,4.771756 213.028503,3.108237 
	C214.086517,3.870943 215.911789,4.509550 216.058960,5.419569 
	C216.504578,8.174775 214.936630,9.264071 211.922668,8.285645 
z"/>
<path fill="#3F3E3E" opacity="1.000000" stroke="none" 
	d="
M537.421753,639.306152 
	C533.851746,640.010010 532.623535,638.325745 533.435852,635.500977 
	C533.695740,634.597412 535.952393,633.376343 536.770569,633.686218 
	C539.642334,634.773926 539.737061,636.885986 537.421753,639.306152 
z"/>
<path fill="#8F89B3" opacity="1.000000" stroke="none" 
	d="
M1363.442993,635.051270 
	C1361.754517,634.537476 1360.301147,633.839294 1358.847778,633.141113 
	C1359.902832,632.155884 1360.958008,631.170654 1362.013062,630.185425 
	C1362.568115,631.745911 1363.123047,633.306396 1363.442993,635.051270 
z"/>
<path fill="#8F89B3" opacity="1.000000" stroke="none" 
	d="
M1343.219971,612.536011 
	C1343.498657,615.859741 1341.711182,616.752625 1339.327026,615.860535 
	C1338.539551,615.565857 1338.422241,613.480530 1337.998535,612.213867 
	C1339.710083,612.218384 1341.421753,612.222839 1343.219971,612.536011 
z"/>
<path fill="#8F89B3" opacity="1.000000" stroke="none" 
	d="
M1282.046387,677.366943 
	C1280.986328,675.934387 1280.254028,674.489441 1279.521851,673.044434 
	C1280.969116,672.923584 1282.416260,672.802673 1283.863525,672.681763 
	C1283.366943,674.239380 1282.870483,675.796936 1282.046387,677.366943 
z"/>
<path fill="#3F3E3E" opacity="1.000000" stroke="none" 
	d="
M281.705231,252.457703 
	C284.384125,254.317459 284.324097,256.250793 281.837952,257.505188 
	C280.994781,257.930634 278.578094,257.112000 278.221802,256.284424 
	C277.044220,253.549271 278.715637,252.395294 281.705231,252.457703 
z"/>
<path fill="#3F3E3E" opacity="1.000000" stroke="none" 
	d="
M220.717590,223.500214 
	C220.044083,221.982437 219.380081,220.558090 219.520752,219.218231 
	C219.566544,218.781830 221.915695,218.041565 222.839020,218.399841 
	C223.722443,218.742645 224.859726,220.951874 224.600143,221.260834 
	C223.720673,222.307571 222.271423,222.875565 220.717590,223.500214 
z"/>
<path fill="#3F3E3E" opacity="1.000000" stroke="none" 
	d="
M662.038086,23.455162 
	C665.026489,22.118387 666.612793,23.257654 666.502014,25.970747 
	C666.464966,26.876308 664.548767,28.544266 663.694641,28.423800 
	C660.859192,28.023924 660.518982,26.040438 662.038086,23.455162 
z"/>
<path fill="#3F3E3E" opacity="1.000000" stroke="none" 
	d="
M1183.575317,197.959854 
	C1182.800415,197.811996 1182.223755,197.339462 1181.497314,196.696884 
	C1181.264648,195.534180 1180.842773,194.399872 1181.183472,193.583984 
	C1181.628784,192.517273 1182.527832,191.415070 1183.526855,190.894852 
	C1184.062622,190.615799 1185.770264,191.339264 1185.969238,191.936630 
	C1186.318848,192.986725 1186.150879,194.373276 1185.754028,195.455597 
	C1185.440918,196.309372 1184.458618,196.917770 1183.575317,197.959854 
z"/>
<path fill="#3F3E3E" opacity="1.000000" stroke="none" 
	d="
M622.000122,494.914856 
	C623.801880,495.018066 625.458923,495.160645 626.749573,495.923248 
	C627.102844,496.131989 626.697571,498.483429 626.001465,499.319855 
	C625.502747,499.919067 623.189514,500.040588 622.986450,499.667450 
	C622.262817,498.337830 622.095337,496.705536 622.000122,494.914856 
z"/>
<path fill="#8F89B3" opacity="1.000000" stroke="none" 
	d="
M401.422882,655.398438 
	C400.340729,656.795959 399.120667,657.887268 397.900604,658.978577 
	C397.412292,657.617859 396.923981,656.257080 396.435669,654.896362 
	C398.052124,654.961670 399.668549,655.026917 401.422882,655.398438 
z"/>
<path fill="#3F3E3E" opacity="1.000000" stroke="none" 
	d="
M5.728699,598.446533 
	C5.664581,596.665344 5.918081,595.068298 6.171581,593.471313 
	C7.413869,594.213623 9.538074,594.779114 9.729050,595.732117 
	C10.251111,598.337219 8.523874,599.221008 5.728699,598.446533 
z"/>
<path fill="#3F3E3E" opacity="1.000000" stroke="none" 
	d="
M428.225220,102.660965 
	C428.109833,99.555031 429.729095,98.551491 431.916229,99.648209 
	C432.774261,100.078461 432.755981,102.256393 433.136780,103.638397 
	C431.529114,103.434288 429.921448,103.230186 428.225220,102.660965 
z"/>
<path fill="#3F3E3E" opacity="1.000000" stroke="none" 
	d="
M36.137833,528.432800 
	C34.484787,527.726807 33.120071,526.829956 31.755348,525.933167 
	C32.958004,525.091736 34.160664,524.250305 35.363327,523.408875 
	C35.717606,525.019897 36.071884,526.630920 36.137833,528.432800 
z"/>
<path fill="#3F3E3E" opacity="1.000000" stroke="none" 
	d="
M1310.120605,328.174744 
	C1311.451416,329.428375 1312.416504,330.753540 1313.381714,332.078735 
	C1312.132568,332.517761 1310.425781,333.696564 1309.718628,333.259247 
	C1307.459839,331.862457 1307.275146,329.905640 1310.120605,328.174744 
z"/>
<path fill="#3F3E3E" opacity="1.000000" stroke="none" 
	d="
M812.690918,289.388947 
	C812.813293,292.467529 811.268127,293.468719 809.013428,292.431854 
	C808.154663,292.036987 807.242676,289.680969 807.653564,288.980347 
	C809.047913,286.602692 810.970276,286.608215 812.690918,289.388947 
z"/>
<path fill="#3F3E3E" opacity="1.000000" stroke="none" 
	d="
M27.460167,284.341766 
	C29.173630,283.820526 30.792910,283.645782 32.412186,283.471008 
	C32.203510,284.794678 32.426437,286.904144 31.707602,287.298950 
	C29.265642,288.640137 27.650681,287.514221 27.460167,284.341766 
z"/>
<path fill="#3F3E3E" opacity="1.000000" stroke="none" 
	d="
M381.806030,730.663696 
	C382.090973,727.573853 383.676361,726.401062 386.115051,727.798096 
	C386.818054,728.200806 386.552063,730.295044 386.730347,731.613770 
	C385.115875,731.404541 383.501373,731.195312 381.806030,730.663696 
z"/>
<path fill="#3F3E3E" opacity="1.000000" stroke="none" 
	d="
M77.723984,340.921509 
	C76.203850,341.831909 74.688377,342.386414 73.172913,342.940918 
	C73.206627,341.514191 73.240349,340.087463 73.274063,338.660767 
	C74.758926,339.295715 76.243790,339.930664 77.723984,340.921509 
z"/>
<path fill="#3F3E3E" opacity="1.000000" stroke="none" 
	d="
M1263.382446,111.266075 
	C1265.091553,110.698761 1266.704590,110.481567 1268.317749,110.264389 
	C1267.958252,111.647034 1267.598755,113.029663 1267.239136,114.412300 
	C1265.921631,113.480263 1264.604004,112.548233 1263.382446,111.266075 
z"/>
<path fill="#8F89B3" opacity="1.000000" stroke="none" 
	d="
M1196.018799,308.093475 
	C1195.305786,310.985901 1193.672729,311.783997 1191.742310,309.986176 
	C1191.078369,309.367798 1191.046753,306.884186 1191.693359,306.268799 
	C1193.579224,304.473969 1195.250244,305.173615 1196.018799,308.093475 
z"/>
<path fill="#3F3E3E" opacity="1.000000" stroke="none" 
	d="
M179.293076,640.713806 
	C178.766159,639.020142 178.598297,637.421021 178.430435,635.821899 
	C179.828873,636.191345 181.227310,636.560730 182.625763,636.930176 
	C181.634567,638.222900 180.643356,639.515625 179.293076,640.713806 
z"/>
<path fill="#3F3E3E" opacity="1.000000" stroke="none" 
	d="
M128.624298,277.575562 
	C130.403687,277.460876 131.994080,277.657410 133.584457,277.853912 
	C132.882767,279.112061 132.181076,280.370209 131.479385,281.628357 
	C130.464691,280.381134 129.449982,279.133942 128.624298,277.575562 
z"/>
<path fill="#3F3E3E" opacity="1.000000" stroke="none" 
	d="
M1263.958252,245.016190 
	C1262.222656,244.659760 1260.744263,244.037872 1259.265747,243.415985 
	C1260.256714,242.407394 1261.247681,241.398834 1262.238770,240.390289 
	C1262.897583,241.843781 1263.556519,243.297272 1263.958252,245.016190 
z"/>
<path fill="#3F3E3E" opacity="1.000000" stroke="none" 
	d="
M1056.216064,531.246582 
	C1057.508789,532.473389 1058.438843,533.785156 1059.368774,535.096924 
	C1057.998413,535.449036 1056.628174,535.801086 1055.257812,536.153198 
	C1055.456299,534.545959 1055.654785,532.938782 1056.216064,531.246582 
z"/>
<path fill="#3F3E3E" opacity="1.000000" stroke="none" 
	d="
M161.327347,441.428589 
	C162.623215,442.631287 163.574890,443.940155 164.526550,445.249023 
	C163.152649,445.620056 161.778732,445.991058 160.404816,446.362061 
	C160.597595,444.752960 160.790359,443.143860 161.327347,441.428589 
z"/>
<path fill="#3F3E3E" opacity="1.000000" stroke="none" 
	d="
M58.940575,488.357422 
	C57.305065,488.091858 55.939358,487.606628 54.573650,487.121399 
	C54.949158,486.103668 55.050209,484.718231 55.779228,484.174103 
	C56.475296,483.654541 58.636669,483.723938 58.745872,484.032623 
	C59.193356,485.297485 59.102863,486.752625 58.940575,488.357422 
z"/>
<path fill="#3F3E3E" opacity="1.000000" stroke="none" 
	d="
M669.879089,503.049957 
	C669.009766,506.124115 667.216003,506.900818 665.127563,505.008209 
	C664.454956,504.398621 664.425110,501.874237 665.084961,501.223541 
	C667.150085,499.187225 668.909363,500.061279 669.879089,503.049957 
z"/>
<path fill="#3F3E3E" opacity="1.000000" stroke="none" 
	d="
M871.834412,573.455444 
	C870.245728,573.266113 868.789062,573.008667 867.622925,572.283813 
	C867.355713,572.117676 867.779297,569.984619 868.447205,569.407715 
	C869.129578,568.818298 870.503418,569.029358 871.574524,568.890015 
	C871.740295,570.332520 871.906128,571.775085 871.834412,573.455444 
z"/>
<path fill="#3F3E3E" opacity="1.000000" stroke="none" 
	d="
M358.898682,217.837021 
	C357.174255,217.414246 355.708893,216.745987 354.243561,216.077713 
	C355.260162,215.088409 356.276764,214.099121 357.293365,213.109833 
	C357.914856,214.603729 358.536316,216.097641 358.898682,217.837021 
z"/>
<path fill="#3F3E3E" opacity="1.000000" stroke="none" 
	d="
M33.566246,543.419312 
	C35.733562,545.811829 35.248543,547.683960 32.596294,548.388184 
	C31.786047,548.603394 30.491459,546.994629 29.418676,546.221130 
	C30.692904,545.230774 31.967131,544.240479 33.566246,543.419312 
z"/>
<path fill="#3F3E3E" opacity="1.000000" stroke="none" 
	d="
M808.373108,73.267365 
	C810.080322,72.697121 811.688782,72.480751 813.297241,72.264374 
	C812.934753,73.648979 812.572327,75.033592 812.209961,76.418213 
	C810.898071,75.485893 809.586243,74.553574 808.373108,73.267365 
z"/>
<path fill="#3F3E3E" opacity="1.000000" stroke="none" 
	d="
M892.714417,323.473938 
	C891.658142,324.928558 890.478638,326.063721 889.299072,327.198883 
	C888.774353,325.872925 888.249634,324.546967 887.724854,323.221008 
	C889.346985,323.198853 890.969055,323.176666 892.714417,323.473938 
z"/>
<path fill="#3F3E3E" opacity="1.000000" stroke="none" 
	d="
M1228.607910,194.885132 
	C1227.080811,195.792404 1225.576904,196.353775 1224.072998,196.915146 
	C1224.115356,195.509323 1224.157715,194.103500 1224.200195,192.697662 
	C1225.677246,193.311508 1227.154175,193.925369 1228.607910,194.885132 
z"/>
<path fill="#3F3E3E" opacity="1.000000" stroke="none" 
	d="
M343.338745,545.823730 
	C343.963470,542.974060 345.431061,541.606262 347.793182,543.388489 
	C348.502014,543.923340 348.747528,546.332458 348.168579,547.081360 
	C346.325867,549.464722 344.595428,548.553650 343.338745,545.823730 
z"/>
<path fill="#3F3E3E" opacity="1.000000" stroke="none" 
	d="
M709.406982,535.479126 
	C707.671997,535.941345 706.057007,536.073425 704.441895,536.205444 
	C704.822205,534.932800 705.202576,533.660095 705.582886,532.387390 
	C706.897583,533.307922 708.212280,534.228455 709.406982,535.479126 
z"/>
<path fill="#3F3E3E" opacity="1.000000" stroke="none" 
	d="
M606.927185,224.905212 
	C609.903076,223.926193 611.230591,225.202606 610.724304,227.682800 
	C610.543213,228.569565 608.373352,229.893234 607.515564,229.641205 
	C604.920410,228.878677 604.873657,227.023544 606.927185,224.905212 
z"/>
<path fill="#3F3E3E" opacity="1.000000" stroke="none" 
	d="
M1298.987793,381.860229 
	C1300.501099,382.709930 1301.723999,383.746185 1302.946899,384.782440 
	C1301.831055,385.445312 1300.715332,386.108215 1299.599365,386.771118 
	C1299.298706,385.196381 1298.998047,383.621613 1298.987793,381.860229 
z"/>
<path fill="#3F3E3E" opacity="1.000000" stroke="none" 
	d="
M568.450439,86.575562 
	C566.633484,86.622147 565.005188,86.363853 563.376831,86.105545 
	C564.052368,84.956863 564.727966,83.808189 565.403564,82.659515 
	C566.482056,83.863243 567.560547,85.066956 568.450439,86.575562 
z"/>
<path fill="#3F3E3E" opacity="1.000000" stroke="none" 
	d="
M38.668434,497.958618 
	C37.702026,495.067719 38.817471,493.676270 41.339264,494.183929 
	C42.210388,494.359283 43.528809,496.428406 43.289703,497.227722 
	C42.586861,499.577179 40.872665,500.177490 38.668434,497.958618 
z"/>
<path fill="#BBB4B4" opacity="1.000000" stroke="none" 
	d="
M1253.905273,682.005249 
	C1255.858398,685.582092 1253.909424,687.700073 1251.313110,688.468079 
	C1249.720215,688.939392 1246.936035,688.065796 1245.873779,686.800049 
	C1245.026978,685.790771 1245.298706,682.721375 1246.264526,681.540466 
	C1248.427002,678.896423 1251.233521,679.631531 1253.905273,682.005249 
z"/>
<path fill="#BBB4B4" opacity="1.000000" stroke="none" 
	d="
M1113.845337,355.104950 
	C1112.326050,353.879669 1111.062744,352.695984 1110.229858,351.262329 
	C1110.094849,351.029816 1111.823853,349.081268 1112.771118,349.011566 
	C1113.986572,348.922089 1115.282715,349.930939 1116.544189,350.466614 
	C1115.777588,351.998901 1115.010986,353.531189 1113.845337,355.104950 
z"/>
<path fill="#BBB4B4" opacity="1.000000" stroke="none" 
	d="
M1166.455322,27.613579 
	C1166.012939,25.809553 1165.526489,24.084156 1165.960449,22.634201 
	C1166.172729,21.924629 1168.253540,21.177900 1169.202759,21.449127 
	C1170.197021,21.733200 1171.467163,23.175215 1171.535645,24.184483 
	C1171.755615,27.426338 1169.751831,28.392628 1166.455322,27.613579 
z"/>
</svg>