<svg class="svg-icon" style="width: 1em; height: 1em;vertical-align: middle;fill: currentColor;overflow: hidden;" viewBox="0 0 1024 1024" version="1.1" xmlns="http://www.w3.org/2000/svg"><path d="M512 554.666667a128 128 0 1 0-128-128 128 128 0 0 0 128 128z m0-170.666667a42.666667 42.666667 0 1 1-42.666667 42.666667 42.666667 42.666667 0 0 1 42.666667-42.666667z m409.173333 390.826667A426.666667 426.666667 0 0 0 810.666667 592.64a341.333333 341.333333 0 1 0-597.333334 0 422.4 422.4 0 0 0-110.933333 182.186667 128 128 0 0 0 20.053333 112.213333A128 128 0 0 0 226.133333 938.666667h571.733334a128 128 0 0 0 103.253333-51.626667 128 128 0 0 0 20.053333-112.213333zM512 170.666667a256 256 0 1 1-256 256 256 256 0 0 1 256-256z m320.853333 665.173333a42.666667 42.666667 0 0 1-34.986666 17.493333H226.133333a42.666667 42.666667 0 0 1-34.986666-17.493333 42.666667 42.666667 0 0 1-6.4-37.12 334.933333 334.933333 0 0 1 80.213333-137.386667 341.333333 341.333333 0 0 0 494.08 0 334.933333 334.933333 0 0 1 80.213333 137.386667 42.666667 42.666667 0 0 1-6.4 37.12z"  /></svg>